<?xml version="1.0" encoding="UTF-8" standalone="no"?>
<!DOCTYPE svg PUBLIC "-//W3C//DTD SVG 1.1//EN"
 "http://www.w3.org/Graphics/SVG/1.1/DTD/svg11.dtd">
<!-- Generated by graphviz version 2.43.0 (0)
 -->
<!-- Title: BRAKER4 Pages: 1 -->
<svg width="1274pt" height="1518pt"
 viewBox="0.00 0.00 1273.60 1517.60" xmlns="http://www.w3.org/2000/svg" xmlns:xlink="http://www.w3.org/1999/xlink">
<g id="graph0" class="graph" transform="scale(1 1) rotate(0) translate(28.8 1488.8)">
<title>BRAKER4</title>
<polygon fill="white" stroke="transparent" points="-28.8,28.8 -28.8,-1488.8 1244.8,-1488.8 1244.8,28.8 -28.8,28.8"/>
<g id="clust1" class="cluster">
<title>cluster_inputs</title>
<path fill="#fafafa" stroke="#888888" d="M469,-1308C469,-1308 1196,-1308 1196,-1308 1202,-1308 1208,-1314 1208,-1320 1208,-1320 1208,-1440 1208,-1440 1208,-1446 1202,-1452 1196,-1452 1196,-1452 469,-1452 469,-1452 463,-1452 457,-1446 457,-1440 457,-1440 457,-1320 457,-1320 457,-1314 463,-1308 469,-1308"/>
<text text-anchor="middle" x="832.5" y="-1433.6" font-family="Helvetica,sans-Serif" font-weight="bold" font-size="18.00">INPUTS</text>
</g>
<g id="clust3" class="cluster">
<title>cluster_pre</title>
<path fill="#fafafa" stroke="#888888" d="M263,-1112C263,-1112 924,-1112 924,-1112 930,-1112 936,-1118 936,-1124 936,-1124 936,-1250 936,-1250 936,-1256 930,-1262 924,-1262 924,-1262 263,-1262 263,-1262 257,-1262 251,-1256 251,-1250 251,-1250 251,-1124 251,-1124 251,-1118 257,-1112 263,-1112"/>
<text text-anchor="middle" x="593.5" y="-1243.6" font-family="Helvetica,sans-Serif" font-weight="bold" font-size="18.00">PREPROCESSING</text>
</g>
<g id="clust5" class="cluster">
<title>cluster_outputs</title>
<path fill="#fafafa" stroke="#888888" d="M20,-201C20,-201 1083,-201 1083,-201 1089,-201 1095,-207 1095,-213 1095,-213 1095,-321 1095,-321 1095,-327 1089,-333 1083,-333 1083,-333 20,-333 20,-333 14,-333 8,-327 8,-321 8,-321 8,-213 8,-213 8,-207 14,-201 20,-201"/>
<text text-anchor="middle" x="551.5" y="-314.6" font-family="Helvetica,sans-Serif" font-weight="bold" font-size="18.00">OUTPUTS</text>
</g>
<g id="clust7" class="cluster">
<title>cluster_legend</title>
<path fill="#ffffff" stroke="#888888" d="M172,-8C172,-8 710,-8 710,-8 716,-8 722,-14 722,-20 722,-20 722,-130 722,-130 722,-136 716,-142 710,-142 710,-142 172,-142 172,-142 166,-142 160,-136 160,-130 160,-130 160,-20 160,-20 160,-14 166,-8 172,-8"/>
<text text-anchor="middle" x="441" y="-123.6" font-family="Helvetica,sans-Serif" font-weight="bold" font-size="18.00">LEGEND</text>
</g>
<!-- in_rnaseq -->
<g id="node1" class="node">
<title>in_rnaseq</title>
<polygon fill="#fdd9b4" stroke="#333333" stroke-width="1.5" stroke-dasharray="5,2" points="657.12,-1410 508.99,-1410 470.88,-1322 619.01,-1322 657.12,-1410"/>
<text text-anchor="middle" x="564" y="-1371.2" font-family="Helvetica,sans-Serif" font-size="16.00">Short&#45;read</text>
<text text-anchor="middle" x="564" y="-1353.2" font-family="Helvetica,sans-Serif" font-size="16.00">RNA&#45;Seq</text>
</g>
<!-- pp_align -->
<g id="node7" class="node">
<title>pp_align</title>
<path fill="#d9ead3" stroke="#333333" stroke-width="1.5" stroke-dasharray="5,2" d="M439.5,-1211C439.5,-1211 276.5,-1211 276.5,-1211 270.5,-1211 264.5,-1205 264.5,-1199 264.5,-1199 264.5,-1147 264.5,-1147 264.5,-1141 270.5,-1135 276.5,-1135 276.5,-1135 439.5,-1135 439.5,-1135 445.5,-1135 451.5,-1141 451.5,-1147 451.5,-1147 451.5,-1199 451.5,-1199 451.5,-1205 445.5,-1211 439.5,-1211"/>
<text text-anchor="middle" x="358" y="-1187.2" font-family="Helvetica,sans-Serif" font-size="16.00">Read alignment</text>
<text text-anchor="middle" x="358" y="-1169.2" font-family="Helvetica,sans-Serif" font-size="16.00">HISAT2 (short reads)</text>
<text text-anchor="middle" x="358" y="-1151.2" font-family="Helvetica,sans-Serif" font-size="16.00">minimap2 (IsoSeq)</text>
</g>
<!-- in_rnaseq&#45;&gt;pp_align -->
<g id="edge2" class="edge">
<title>in_rnaseq&#45;&gt;pp_align</title>
<path fill="none" stroke="#555555" stroke-width="1.4" stroke-dasharray="5,2" d="M517.51,-1321.9C484.08,-1290.9 439.15,-1249.25 405.5,-1218.04"/>
<polygon fill="#555555" stroke="#555555" stroke-width="1.4" points="407.78,-1215.38 398.06,-1211.15 403.02,-1220.51 407.78,-1215.38"/>
</g>
<!-- in_genome -->
<g id="node2" class="node">
<title>in_genome</title>
<path fill="#fdd9b4" stroke="#333333" stroke-width="1.5" d="M1027.66,-1410C1027.66,-1410 924.94,-1410 924.94,-1410 918.94,-1410 910.85,-1404.37 908.77,-1398.75 908.77,-1398.75 884.51,-1333.25 884.51,-1333.25 882.42,-1327.63 886.34,-1322 892.34,-1322 892.34,-1322 995.06,-1322 995.06,-1322 1001.06,-1322 1009.15,-1327.63 1011.23,-1333.25 1011.23,-1333.25 1035.49,-1398.75 1035.49,-1398.75 1037.58,-1404.37 1033.66,-1410 1027.66,-1410"/>
<text text-anchor="middle" x="960" y="-1371.2" font-family="Helvetica,sans-Serif" font-size="16.00">Genome</text>
<text text-anchor="middle" x="960" y="-1353.2" font-family="Helvetica,sans-Serif" font-size="16.00">FASTA</text>
</g>
<!-- pp_mask -->
<g id="node5" class="node">
<title>pp_mask</title>
<path fill="#d9ead3" stroke="#333333" stroke-width="1.5" stroke-dasharray="5,2" d="M910,-1220C910,-1220 744,-1220 744,-1220 738,-1220 732,-1214 732,-1208 732,-1208 732,-1138 732,-1138 732,-1132 738,-1126 744,-1126 744,-1126 910,-1126 910,-1126 916,-1126 922,-1132 922,-1138 922,-1138 922,-1208 922,-1208 922,-1214 916,-1220 910,-1220"/>
<text text-anchor="middle" x="827" y="-1196.2" font-family="Helvetica,sans-Serif" font-size="16.00">Repeat masking</text>
<text text-anchor="middle" x="827" y="-1178.2" font-family="Helvetica,sans-Serif" font-size="16.00">(RepeatModeler2 +</text>
<text text-anchor="middle" x="827" y="-1160.2" font-family="Helvetica,sans-Serif" font-size="16.00">RepeatMasker + TRF</text>
<text text-anchor="middle" x="827" y="-1142.2" font-family="Helvetica,sans-Serif" font-size="16.00">or Red)</text>
</g>
<!-- in_genome&#45;&gt;pp_mask -->
<g id="edge1" class="edge">
<title>in_genome&#45;&gt;pp_mask</title>
<path fill="none" stroke="#555555" stroke-width="1.4" stroke-dasharray="5,2" d="M892.2,-1321.67C884.74,-1315.03 877.78,-1307.78 872,-1300 856.73,-1279.44 846.27,-1253.22 839.3,-1230.03"/>
<polygon fill="#555555" stroke="#555555" stroke-width="1.4" points="842.64,-1228.96 836.53,-1220.3 835.9,-1230.88 842.64,-1228.96"/>
<text text-anchor="middle" x="909" y="-1281.3" font-family="Helvetica,sans-Serif" font-size="14.00">if unmasked</text>
</g>
<!-- pp_minisplice -->
<g id="node6" class="node">
<title>pp_minisplice</title>
<path fill="#d9ead3" stroke="#333333" stroke-width="1.5" stroke-dasharray="5,2" d="M702,-1202C702,-1202 560,-1202 560,-1202 554,-1202 548,-1196 548,-1190 548,-1190 548,-1156 548,-1156 548,-1150 554,-1144 560,-1144 560,-1144 702,-1144 702,-1144 708,-1144 714,-1150 714,-1156 714,-1156 714,-1190 714,-1190 714,-1196 708,-1202 702,-1202"/>
<text text-anchor="middle" x="631" y="-1178.2" font-family="Helvetica,sans-Serif" font-size="16.00">minisplice</text>
<text text-anchor="middle" x="631" y="-1160.2" font-family="Helvetica,sans-Serif" font-size="16.00">splice&#45;site scoring</text>
</g>
<!-- in_genome&#45;&gt;pp_minisplice -->
<g id="edge4" class="edge">
<title>in_genome&#45;&gt;pp_minisplice</title>
<path fill="none" stroke="#555555" stroke-width="1.4" stroke-dasharray="5,2" d="M901.25,-1321.76C891.54,-1316.29 881.27,-1311.42 871,-1308 824.49,-1292.53 805.73,-1320.04 761,-1300 717.61,-1280.56 680.1,-1240.1 656.68,-1210.25"/>
<polygon fill="#555555" stroke="#555555" stroke-width="1.4" points="659.32,-1207.93 650.45,-1202.13 653.77,-1212.2 659.32,-1207.93"/>
<text text-anchor="middle" x="806" y="-1288.8" font-family="Helvetica,sans-Serif" font-size="14.00">if IsoSeq +</text>
<text text-anchor="middle" x="806" y="-1273.8" font-family="Helvetica,sans-Serif" font-size="14.00">use_minisplice</text>
</g>
<!-- hints -->
<g id="node8" class="node">
<title>hints</title>
<path fill="#c9daf8" stroke="#333333" stroke-width="1.5" d="M1077,-1083C1077,-1083 843,-1083 843,-1083 837,-1083 831,-1077 831,-1071 831,-1071 831,-1000 831,-1000 831,-994 837,-988 843,-988 843,-988 1077,-988 1077,-988 1083,-988 1089,-994 1089,-1000 1089,-1000 1089,-1071 1089,-1071 1089,-1077 1083,-1083 1077,-1083"/>
<text text-anchor="middle" x="960" y="-1059.2" font-family="Helvetica,sans-Serif" font-size="16.00">Evidence hints</text>
<text text-anchor="middle" x="960" y="-1022.2" font-family="Helvetica,sans-Serif" font-size="16.00">RNA&#45;Seq &#160;· &#160;Proteins (ProtHint)</text>
<text text-anchor="middle" x="960" y="-1004.2" font-family="Helvetica,sans-Serif" font-size="16.00">IsoSeq &#160;· &#160;BUSCO</text>
</g>
<!-- in_genome&#45;&gt;hints -->
<g id="edge6" class="edge">
<title>in_genome&#45;&gt;hints</title>
<path fill="none" stroke="#555555" stroke-width="1.4" d="M960,-1321.72C960,-1263.01 960,-1158.03 960,-1093.12"/>
<polygon fill="#555555" stroke="#555555" stroke-width="1.4" points="963.5,-1093.06 960,-1083.06 956.5,-1093.06 963.5,-1093.06"/>
</g>
<!-- in_isoseq -->
<g id="node3" class="node">
<title>in_isoseq</title>
<polygon fill="#fdd9b4" stroke="#333333" stroke-width="1.5" stroke-dasharray="5,2" points="862.12,-1410 713.99,-1410 675.88,-1322 824.01,-1322 862.12,-1410"/>
<text text-anchor="middle" x="769" y="-1371.2" font-family="Helvetica,sans-Serif" font-size="16.00">IsoSeq</text>
<text text-anchor="middle" x="769" y="-1353.2" font-family="Helvetica,sans-Serif" font-size="16.00">long reads</text>
</g>
<!-- in_isoseq&#45;&gt;pp_align -->
<g id="edge3" class="edge">
<title>in_isoseq&#45;&gt;pp_align</title>
<path fill="none" stroke="#555555" stroke-width="1.4" stroke-dasharray="5,2" d="M694.33,-1321.89C684.9,-1316.98 675.3,-1312.23 666,-1308 611.34,-1283.17 594.29,-1285.38 539,-1262 505.75,-1247.94 469.87,-1230.9 438.88,-1215.57"/>
<polygon fill="#555555" stroke="#555555" stroke-width="1.4" points="440.37,-1212.4 429.86,-1211.09 437.26,-1218.67 440.37,-1212.4"/>
</g>
<!-- in_proteins -->
<g id="node4" class="node">
<title>in_proteins</title>
<polygon fill="#fdd9b4" stroke="#333333" stroke-width="1.5" stroke-dasharray="5,2" points="1194.35,-1410 1085.62,-1410 1057.65,-1322 1166.38,-1322 1194.35,-1410"/>
<text text-anchor="middle" x="1126" y="-1371.2" font-family="Helvetica,sans-Serif" font-size="16.00">Protein</text>
<text text-anchor="middle" x="1126" y="-1353.2" font-family="Helvetica,sans-Serif" font-size="16.00">FASTA</text>
</g>
<!-- in_proteins&#45;&gt;hints -->
<g id="edge9" class="edge">
<title>in_proteins&#45;&gt;hints</title>
<path fill="none" stroke="#555555" stroke-width="1.4" stroke-dasharray="5,2" d="M1104.13,-1321.72C1074.34,-1262.77 1020.98,-1157.17 988.21,-1092.32"/>
<polygon fill="#555555" stroke="#555555" stroke-width="1.4" points="991.16,-1090.41 983.53,-1083.06 984.92,-1093.57 991.16,-1090.41"/>
</g>
<!-- pp_mask&#45;&gt;hints -->
<g id="edge7" class="edge">
<title>pp_mask&#45;&gt;hints</title>
<path fill="none" stroke="#555555" stroke-width="1.4" stroke-dasharray="5,2" d="M872.4,-1125.75C883.62,-1114.32 895.73,-1101.98 907.26,-1090.23"/>
<polygon fill="#555555" stroke="#555555" stroke-width="1.4" points="909.85,-1092.59 914.35,-1083 904.85,-1087.69 909.85,-1092.59"/>
</g>
<!-- pp_minisplice&#45;&gt;pp_align -->
<g id="edge5" class="edge">
<title>pp_minisplice&#45;&gt;pp_align</title>
<path fill="none" stroke="#555555" stroke-width="1.4" stroke-dasharray="5,2" d="M547.61,-1173C520.57,-1173 490.25,-1173 461.91,-1173"/>
<polygon fill="#555555" stroke="#555555" stroke-width="1.4" points="461.57,-1169.5 451.57,-1173 461.57,-1176.5 461.57,-1169.5"/>
<text text-anchor="middle" x="499.75" y="-1194.8" font-family="Helvetica,sans-Serif" font-size="14.00">splice scores</text>
<text text-anchor="middle" x="499.75" y="-1179.8" font-family="Helvetica,sans-Serif" font-size="14.00">(&#45;&#45;spsc)</text>
</g>
<!-- pp_align&#45;&gt;hints -->
<g id="edge8" class="edge">
<title>pp_align&#45;&gt;hints</title>
<path fill="none" stroke="#555555" stroke-width="1.4" stroke-dasharray="5,2" d="M451.66,-1138.13C479.52,-1128.82 510.28,-1119.3 539,-1112 632.02,-1088.37 738.42,-1069.36 820.99,-1056.32"/>
<polygon fill="#555555" stroke="#555555" stroke-width="1.4" points="821.6,-1059.77 830.93,-1054.76 820.51,-1052.85 821.6,-1059.77"/>
</g>
<!-- genemark -->
<g id="node9" class="node">
<title>genemark</title>
<path fill="#ead1dc" stroke="#333333" stroke-width="1.6" d="M1069,-947C1069,-947 851,-947 851,-947 845,-947 839,-941 839,-935 839,-935 839,-846 839,-846 839,-840 845,-834 851,-834 851,-834 1069,-834 1069,-834 1075,-834 1081,-840 1081,-846 1081,-846 1081,-935 1081,-935 1081,-941 1075,-947 1069,-947"/>
<text text-anchor="middle" x="960" y="-923.2" font-family="Helvetica,sans-Serif" font-size="16.00">GeneMark</text>
<text text-anchor="middle" x="960" y="-905.2" font-family="Helvetica,sans-Serif" font-size="16.00">(ES / ET / EP+ / ETP)</text>
<text text-anchor="middle" x="960" y="-868.2" font-family="Helvetica,sans-Serif" font-size="16.00">mode selected automatically</text>
<text text-anchor="middle" x="960" y="-850.2" font-family="Helvetica,sans-Serif" font-size="16.00">from provided evidence</text>
</g>
<!-- hints&#45;&gt;genemark -->
<g id="edge10" class="edge">
<title>hints&#45;&gt;genemark</title>
<path fill="none" stroke="#555555" stroke-width="1.4" d="M960,-987.68C960,-977.96 960,-967.56 960,-957.31"/>
<polygon fill="#555555" stroke="#555555" stroke-width="1.4" points="963.5,-957.14 960,-947.14 956.5,-957.14 963.5,-957.14"/>
</g>
<!-- augustus -->
<g id="node10" class="node">
<title>augustus</title>
<path fill="#fff2cc" stroke="#333333" stroke-width="1.6" d="M1046.5,-764C1046.5,-764 873.5,-764 873.5,-764 867.5,-764 861.5,-758 861.5,-752 861.5,-752 861.5,-663 861.5,-663 861.5,-657 867.5,-651 873.5,-651 873.5,-651 1046.5,-651 1046.5,-651 1052.5,-651 1058.5,-657 1058.5,-663 1058.5,-663 1058.5,-752 1058.5,-752 1058.5,-758 1052.5,-764 1046.5,-764"/>
<text text-anchor="middle" x="960" y="-740.2" font-family="Helvetica,sans-Serif" font-size="16.00">AUGUSTUS</text>
<text text-anchor="middle" x="960" y="-722.2" font-family="Helvetica,sans-Serif" font-size="16.00">training + prediction</text>
<text text-anchor="middle" x="960" y="-685.2" font-family="Helvetica,sans-Serif" font-size="16.00">(etraining · optimize ·</text>
<text text-anchor="middle" x="960" y="-667.2" font-family="Helvetica,sans-Serif" font-size="16.00">hint&#45;guided prediction)</text>
</g>
<!-- hints&#45;&gt;augustus -->
<g id="edge11" class="edge">
<title>hints&#45;&gt;augustus</title>
<path fill="none" stroke="#555555" stroke-width="1.4" stroke-dasharray="5,2" d="M1054.27,-987.9C1068.64,-976.55 1081.5,-962.97 1090,-947 1113.6,-902.67 1109.63,-880.23 1090,-834 1079.99,-810.42 1063.14,-789.11 1044.83,-771.03"/>
<polygon fill="#555555" stroke="#555555" stroke-width="1.4" points="1047.12,-768.38 1037.47,-764 1042.28,-773.44 1047.12,-768.38"/>
<text text-anchor="middle" x="1120.5" y="-886.8" font-family="Helvetica,sans-Serif" font-size="14.00">hints</text>
</g>
<!-- genemark&#45;&gt;augustus -->
<g id="edge12" class="edge">
<title>genemark&#45;&gt;augustus</title>
<path fill="none" stroke="#555555" stroke-width="1.4" d="M960,-833.72C960,-814.88 960,-793.67 960,-774.14"/>
<polygon fill="#555555" stroke="#555555" stroke-width="1.4" points="963.5,-774.1 960,-764.1 956.5,-774.1 963.5,-774.1"/>
<text text-anchor="middle" x="982.5" y="-802.8" font-family="Helvetica,sans-Serif" font-size="14.00">training</text>
<text text-anchor="middle" x="982.5" y="-787.8" font-family="Helvetica,sans-Serif" font-size="14.00">genes</text>
</g>
<!-- tsebra -->
<g id="node11" class="node">
<title>tsebra</title>
<path fill="#d0e0e3" stroke="#333333" stroke-width="1.6" d="M1062.5,-610C1062.5,-610 857.5,-610 857.5,-610 851.5,-610 845.5,-604 845.5,-598 845.5,-598 845.5,-546 845.5,-546 845.5,-540 851.5,-534 857.5,-534 857.5,-534 1062.5,-534 1062.5,-534 1068.5,-534 1074.5,-540 1074.5,-546 1074.5,-546 1074.5,-598 1074.5,-598 1074.5,-604 1068.5,-610 1062.5,-610"/>
<text text-anchor="middle" x="960" y="-586.2" font-family="Helvetica,sans-Serif" font-size="16.00">TSEBRA merge</text>
<text text-anchor="middle" x="960" y="-568.2" font-family="Helvetica,sans-Serif" font-size="16.00">(AUGUSTUS + GeneMark)</text>
<text text-anchor="middle" x="960" y="-550.2" font-family="Helvetica,sans-Serif" font-size="16.00">+ filter · rename · GFF3</text>
</g>
<!-- genemark&#45;&gt;tsebra -->
<g id="edge14" class="edge">
<title>genemark&#45;&gt;tsebra</title>
<path fill="none" stroke="#555555" stroke-width="1.4" stroke-dasharray="5,2" d="M897.99,-833.93C879.93,-813.89 862.5,-789.79 853,-764 835.64,-716.87 830.24,-695.77 853,-651 859.69,-637.85 869.75,-626.39 881.07,-616.6"/>
<polygon fill="#555555" stroke="#555555" stroke-width="1.4" points="883.53,-619.11 889.09,-610.09 879.12,-613.67 883.53,-619.11"/>
</g>
<!-- augustus&#45;&gt;tsebra -->
<g id="edge13" class="edge">
<title>augustus&#45;&gt;tsebra</title>
<path fill="none" stroke="#555555" stroke-width="1.4" d="M960,-650.66C960,-640.48 960,-629.95 960,-620.05"/>
<polygon fill="#555555" stroke="#555555" stroke-width="1.4" points="963.5,-620.01 960,-610.01 956.5,-620.01 963.5,-620.01"/>
</g>
<!-- utr -->
<g id="node12" class="node">
<title>utr</title>
<path fill="#d0e0e3" stroke="#333333" stroke-width="1.5" stroke-dasharray="5,2" d="M152.5,-465.5C152.5,-465.5 27.5,-465.5 27.5,-465.5 21.5,-465.5 15.5,-459.5 15.5,-453.5 15.5,-453.5 15.5,-401.5 15.5,-401.5 15.5,-395.5 21.5,-389.5 27.5,-389.5 27.5,-389.5 152.5,-389.5 152.5,-389.5 158.5,-389.5 164.5,-395.5 164.5,-401.5 164.5,-401.5 164.5,-453.5 164.5,-453.5 164.5,-459.5 158.5,-465.5 152.5,-465.5"/>
<text text-anchor="middle" x="90" y="-441.7" font-family="Helvetica,sans-Serif" font-size="16.00">UTR annotation</text>
<text text-anchor="middle" x="90" y="-423.7" font-family="Helvetica,sans-Serif" font-size="16.00">StringTie +</text>
<text text-anchor="middle" x="90" y="-405.7" font-family="Helvetica,sans-Serif" font-size="16.00">stringtie2utr</text>
</g>
<!-- tsebra&#45;&gt;utr -->
<g id="edge15" class="edge">
<title>tsebra&#45;&gt;utr</title>
<path fill="none" stroke="#555555" stroke-width="1.4" stroke-dasharray="5,2" d="M845.46,-567.34C657.66,-560.06 293.22,-540.19 174,-493 161.07,-487.88 148.45,-480.16 137.08,-471.81"/>
<polygon fill="#555555" stroke="#555555" stroke-width="1.4" points="139.1,-468.96 129.03,-465.66 134.85,-474.51 139.1,-468.96"/>
</g>
<!-- ncrna -->
<g id="node13" class="node">
<title>ncrna</title>
<path fill="#e6d5f0" stroke="#333333" stroke-width="1.4" stroke-dasharray="5,2" d="M919.5,-475C919.5,-475 700.5,-475 700.5,-475 694.5,-475 688.5,-469 688.5,-463 688.5,-463 688.5,-392 688.5,-392 688.5,-386 694.5,-380 700.5,-380 700.5,-380 919.5,-380 919.5,-380 925.5,-380 931.5,-386 931.5,-392 931.5,-392 931.5,-463 931.5,-463 931.5,-469 925.5,-475 919.5,-475"/>
<text text-anchor="middle" x="810" y="-451.2" font-family="Helvetica,sans-Serif" font-size="16.00">ncRNA annotation &#160;(optional)</text>
<text text-anchor="middle" x="810" y="-414.2" font-family="Helvetica,sans-Serif" font-size="16.00">barrnap · tRNAscan&#45;SE</text>
<text text-anchor="middle" x="810" y="-396.2" font-family="Helvetica,sans-Serif" font-size="16.00">Infernal + Rfam · FEELnc</text>
</g>
<!-- tsebra&#45;&gt;ncrna -->
<g id="edge17" class="edge">
<title>tsebra&#45;&gt;ncrna</title>
<path fill="none" stroke="#555555" stroke-width="1.4" stroke-dasharray="5,2" d="M920.98,-533.93C904.42,-518.2 884.8,-499.56 866.69,-482.36"/>
<polygon fill="#555555" stroke="#555555" stroke-width="1.4" points="868.7,-479.43 859.04,-475.08 863.88,-484.51 868.7,-479.43"/>
</g>
<!-- fantasia -->
<g id="node14" class="node">
<title>fantasia</title>
<path fill="#a2c4c9" stroke="#333333" stroke-width="1.4" stroke-dasharray="5,2" d="M658.5,-493C658.5,-493 409.5,-493 409.5,-493 403.5,-493 397.5,-487 397.5,-481 397.5,-481 397.5,-374 397.5,-374 397.5,-368 403.5,-362 409.5,-362 409.5,-362 658.5,-362 658.5,-362 664.5,-362 670.5,-368 670.5,-374 670.5,-374 670.5,-481 670.5,-481 670.5,-487 664.5,-493 658.5,-493"/>
<text text-anchor="middle" x="534" y="-469.2" font-family="Helvetica,sans-Serif" font-size="16.00">Functional annotation &#160;(optional)</text>
<text text-anchor="middle" x="534" y="-432.2" font-family="Helvetica,sans-Serif" font-size="16.00">FANTASIA&#45;Lite</text>
<text text-anchor="middle" x="534" y="-414.2" font-family="Helvetica,sans-Serif" font-size="16.00">ProtT5 embeddings → GO terms</text>
<text text-anchor="middle" x="534" y="-396.2" font-family="Helvetica,sans-Serif" font-size="16.00">GFF3 Ontology_term decoration</text>
<text text-anchor="middle" x="534" y="-378.2" font-family="Helvetica,sans-Serif" font-size="16.00">(GPU only)</text>
</g>
<!-- tsebra&#45;&gt;fantasia -->
<g id="edge18" class="edge">
<title>tsebra&#45;&gt;fantasia</title>
<path fill="none" stroke="#555555" stroke-width="1.4" stroke-dasharray="5,2" d="M845.42,-543.08C794.26,-529.6 733.57,-512.18 680,-493 679.9,-492.96 679.8,-492.93 679.71,-492.89"/>
<polygon fill="#555555" stroke="#555555" stroke-width="1.4" points="681.13,-489.69 670.54,-489.53 678.72,-496.26 681.13,-489.69"/>
</g>
<!-- qc -->
<g id="node15" class="node">
<title>qc</title>
<path fill="#cfbae1" stroke="#333333" stroke-width="1.4" d="M367,-493C367,-493 195,-493 195,-493 189,-493 183,-487 183,-481 183,-481 183,-374 183,-374 183,-368 189,-362 195,-362 195,-362 367,-362 367,-362 373,-362 379,-368 379,-374 379,-374 379,-481 379,-481 379,-487 373,-493 367,-493"/>
<text text-anchor="middle" x="281" y="-469.2" font-family="Helvetica,sans-Serif" font-size="16.00">Quality control</text>
<text text-anchor="middle" x="281" y="-432.2" font-family="Helvetica,sans-Serif" font-size="16.00">BUSCO + compleasm</text>
<text text-anchor="middle" x="281" y="-414.2" font-family="Helvetica,sans-Serif" font-size="16.00">OMArk (optional)</text>
<text text-anchor="middle" x="281" y="-396.2" font-family="Helvetica,sans-Serif" font-size="16.00">gffcompare (optional)</text>
<text text-anchor="middle" x="281" y="-378.2" font-family="Helvetica,sans-Serif" font-size="16.00">gene&#45;support analysis</text>
</g>
<!-- tsebra&#45;&gt;qc -->
<g id="edge16" class="edge">
<title>tsebra&#45;&gt;qc</title>
<path fill="none" stroke="#555555" stroke-width="1.4" d="M845.27,-568.76C727.67,-563.39 541.02,-546.27 389,-493 388.9,-492.96 388.79,-492.93 388.69,-492.89"/>
<polygon fill="#555555" stroke="#555555" stroke-width="1.4" points="389.68,-489.52 379.09,-489.23 387.19,-496.06 389.68,-489.52"/>
</g>
<!-- out_genes -->
<g id="node17" class="node">
<title>out_genes</title>
<polygon fill="#f4cccc" stroke="#333333" stroke-width="1.5" points="1074.5,-282 839.5,-282 839.5,-224 1080.5,-224 1080.5,-276 1074.5,-282"/>
<polyline fill="none" stroke="#333333" stroke-width="1.5" points="1074.5,-282 1074.5,-276 "/>
<polyline fill="none" stroke="#333333" stroke-width="1.5" points="1080.5,-276 1074.5,-276 "/>
<text text-anchor="middle" x="960" y="-258.2" font-family="Helvetica,sans-Serif" font-size="16.00">braker.gtf · braker.gff3</text>
<text text-anchor="middle" x="960" y="-240.2" font-family="Helvetica,sans-Serif" font-size="16.00">braker.aa · braker.codingseq</text>
</g>
<!-- tsebra&#45;&gt;out_genes -->
<g id="edge19" class="edge">
<title>tsebra&#45;&gt;out_genes</title>
<path fill="none" stroke="#555555" stroke-width="1.4" d="M960,-533.7C960,-473.06 960,-353.68 960,-292.36"/>
<polygon fill="#555555" stroke="#555555" stroke-width="1.4" points="963.5,-292.32 960,-282.32 956.5,-292.32 963.5,-292.32"/>
</g>
<!-- out_utr -->
<g id="node16" class="node">
<title>out_utr</title>
<polygon fill="#f4cccc" stroke="#333333" stroke-width="1.5" stroke-dasharray="5,2" points="148,-273 22,-273 22,-233 154,-233 154,-267 148,-273"/>
<polyline fill="none" stroke="#333333" stroke-width="1.5" stroke-dasharray="5,2" points="148,-273 148,-267 "/>
<polyline fill="none" stroke="#333333" stroke-width="1.5" stroke-dasharray="5,2" points="154,-267 148,-267 "/>
<text text-anchor="middle" x="88" y="-249.2" font-family="Helvetica,sans-Serif" font-size="16.00">braker_utr.gtf</text>
</g>
<!-- utr&#45;&gt;out_utr -->
<g id="edge20" class="edge">
<title>utr&#45;&gt;out_utr</title>
<path fill="none" stroke="#555555" stroke-width="1.4" stroke-dasharray="5,2" d="M89.57,-389.49C89.2,-357.75 88.68,-312.63 88.34,-283.34"/>
<polygon fill="#555555" stroke="#555555" stroke-width="1.4" points="91.84,-283.27 88.22,-273.31 84.84,-283.35 91.84,-283.27"/>
</g>
<!-- out_ncrna -->
<g id="node18" class="node">
<title>out_ncrna</title>
<polygon fill="#f4cccc" stroke="#333333" stroke-width="1.5" stroke-dasharray="5,2" points="815.5,-273 610.5,-273 610.5,-233 821.5,-233 821.5,-267 815.5,-273"/>
<polyline fill="none" stroke="#333333" stroke-width="1.5" stroke-dasharray="5,2" points="815.5,-273 815.5,-267 "/>
<polyline fill="none" stroke="#333333" stroke-width="1.5" stroke-dasharray="5,2" points="821.5,-267 815.5,-267 "/>
<text text-anchor="middle" x="716" y="-249.2" font-family="Helvetica,sans-Serif" font-size="16.00">braker_with_ncRNA.gff3</text>
</g>
<!-- ncrna&#45;&gt;out_ncrna -->
<g id="edge21" class="edge">
<title>ncrna&#45;&gt;out_ncrna</title>
<path fill="none" stroke="#555555" stroke-width="1.4" stroke-dasharray="5,2" d="M784.56,-379.82C767.61,-348.72 745.89,-308.85 731.49,-282.42"/>
<polygon fill="#555555" stroke="#555555" stroke-width="1.4" points="734.39,-280.43 726.53,-273.33 728.24,-283.78 734.39,-280.43"/>
</g>
<!-- out_fantasia -->
<g id="node19" class="node">
<title>out_fantasia</title>
<polygon fill="#f4cccc" stroke="#333333" stroke-width="1.5" stroke-dasharray="5,2" points="586,-282 396,-282 396,-224 592,-224 592,-276 586,-282"/>
<polyline fill="none" stroke="#333333" stroke-width="1.5" stroke-dasharray="5,2" points="586,-282 586,-276 "/>
<polyline fill="none" stroke="#333333" stroke-width="1.5" stroke-dasharray="5,2" points="592,-276 586,-276 "/>
<text text-anchor="middle" x="494" y="-258.2" font-family="Helvetica,sans-Serif" font-size="16.00">braker.go.gff3</text>
<text text-anchor="middle" x="494" y="-240.2" font-family="Helvetica,sans-Serif" font-size="16.00">fantasia_go_terms.tsv</text>
</g>
<!-- fantasia&#45;&gt;out_fantasia -->
<g id="edge22" class="edge">
<title>fantasia&#45;&gt;out_fantasia</title>
<path fill="none" stroke="#555555" stroke-width="1.4" stroke-dasharray="5,2" d="M518.99,-361.78C513.53,-338.22 507.54,-312.38 502.79,-291.91"/>
<polygon fill="#555555" stroke="#555555" stroke-width="1.4" points="506.17,-290.98 500.5,-282.03 499.35,-292.56 506.17,-290.98"/>
</g>
<!-- out_report -->
<g id="node20" class="node">
<title>out_report</title>
<polygon fill="#f4cccc" stroke="#333333" stroke-width="1.5" points="372,-291 172,-291 172,-215 378,-215 378,-285 372,-291"/>
<polyline fill="none" stroke="#333333" stroke-width="1.5" points="372,-291 372,-285 "/>
<polyline fill="none" stroke="#333333" stroke-width="1.5" points="378,-285 372,-285 "/>
<text text-anchor="middle" x="275" y="-267.2" font-family="Helvetica,sans-Serif" font-size="16.00">HTML report</text>
<text text-anchor="middle" x="275" y="-249.2" font-family="Helvetica,sans-Serif" font-size="16.00">+ citations.bib</text>
<text text-anchor="middle" x="275" y="-231.2" font-family="Helvetica,sans-Serif" font-size="16.00">+ software_versions.tsv</text>
</g>
<!-- qc&#45;&gt;out_report -->
<g id="edge23" class="edge">
<title>qc&#45;&gt;out_report</title>
<path fill="none" stroke="#555555" stroke-width="1.4" d="M278.75,-361.78C278.05,-341.61 277.29,-319.77 276.64,-301.05"/>
<polygon fill="#555555" stroke="#555555" stroke-width="1.4" points="280.13,-300.88 276.29,-291.01 273.14,-301.12 280.13,-300.88"/>
</g>
<!-- leg_opt -->
<g id="node22" class="node">
<title>leg_opt</title>
<path fill="#ffffff" stroke="#333333" stroke-width="1.5" stroke-dasharray="5,2" d="M295.5,-89C295.5,-89 186.5,-89 186.5,-89 180.5,-89 174.5,-83 174.5,-77 174.5,-77 174.5,-45 174.5,-45 174.5,-39 180.5,-33 186.5,-33 186.5,-33 295.5,-33 295.5,-33 301.5,-33 307.5,-39 307.5,-45 307.5,-45 307.5,-77 307.5,-77 307.5,-83 301.5,-89 295.5,-89"/>
<text text-anchor="middle" x="241" y="-66" font-family="Helvetica,sans-Serif" font-size="15.00">optional step</text>
<text text-anchor="middle" x="241" y="-49" font-family="Helvetica,sans-Serif" font-size="15.00">(user enables)</text>
</g>
<!-- out_utr&#45;&gt;leg_opt -->
<!-- leg_req -->
<g id="node21" class="node">
<title>leg_req</title>
<path fill="#ffffff" stroke="#333333" stroke-width="1.5" d="M696,-80.5C696,-80.5 596,-80.5 596,-80.5 590,-80.5 584,-74.5 584,-68.5 584,-68.5 584,-53.5 584,-53.5 584,-47.5 590,-41.5 596,-41.5 596,-41.5 696,-41.5 696,-41.5 702,-41.5 708,-47.5 708,-53.5 708,-53.5 708,-68.5 708,-68.5 708,-74.5 702,-80.5 696,-80.5"/>
<text text-anchor="middle" x="646" y="-57.5" font-family="Helvetica,sans-Serif" font-size="15.00">required step</text>
</g>
<!-- out_genes&#45;&gt;leg_req -->
<!-- leg_in -->
<g id="node23" class="node">
<title>leg_in</title>
<path fill="#fdd9b4" stroke="#333333" stroke-width="1.5" d="M553.57,-100C553.57,-100 463.72,-100 463.72,-100 457.72,-100 449.61,-94.38 447.5,-88.77 447.5,-88.77 426.65,-33.23 426.65,-33.23 424.54,-27.62 428.43,-22 434.43,-22 434.43,-22 524.28,-22 524.28,-22 530.28,-22 538.39,-27.62 540.5,-33.23 540.5,-33.23 561.35,-88.77 561.35,-88.77 563.46,-94.38 559.57,-100 553.57,-100"/>
<text text-anchor="middle" x="494" y="-57.5" font-family="Helvetica,sans-Serif" font-size="15.00">input</text>
</g>
<!-- out_ncrna&#45;&gt;leg_in -->
<!-- out_fantasia&#45;&gt;leg_in -->
<!-- leg_out -->
<g id="node24" class="node">
<title>leg_out</title>
<polygon fill="#f4cccc" stroke="#333333" stroke-width="1.5" points="398.5,-80.5 325.5,-80.5 325.5,-41.5 404.5,-41.5 404.5,-74.5 398.5,-80.5"/>
<polyline fill="none" stroke="#333333" stroke-width="1.5" points="398.5,-80.5 398.5,-74.5 "/>
<polyline fill="none" stroke="#333333" stroke-width="1.5" points="404.5,-74.5 398.5,-74.5 "/>
<text text-anchor="middle" x="365" y="-57.5" font-family="Helvetica,sans-Serif" font-size="15.00">output</text>
</g>
<!-- out_report&#45;&gt;leg_out -->
</g>
</svg>
